<?xml version="1.0" encoding="utf-8"?>
<!-- Generator: Adobe Illustrator 23.0.4, SVG Export Plug-In . SVG Version: 6.00 Build 0)  -->
<svg version="1.1" id="Layer_1" xmlns="http://www.w3.org/2000/svg" xmlns:xlink="http://www.w3.org/1999/xlink" x="0px" y="0px"
	 viewBox="0 0 29.4 29.4" style="enable-background:new 0 0 29.4 29.4;" xml:space="preserve">
<style type="text/css">
	.st0{fill:#231F20;}
</style>
<title>closed</title>
<g>
	<g id="Layer_2-2">
		<path class="st0" d="M0.5,29.4c-0.1,0-0.3,0-0.4-0.1c-0.2-0.2-0.2-0.5,0-0.7L28.6,0.1c0.2-0.2,0.5-0.2,0.7,0s0.2,0.5,0,0.7
			L0.9,29.3C0.8,29.4,0.6,29.4,0.5,29.4z"/>
		<path class="st0" d="M28.9,29.4c-0.1,0-0.3,0-0.4-0.1L0.1,0.9C0,0.7,0,0.3,0.1,0.1s0.5-0.2,0.7,0l28.4,28.4c0.2,0.2,0.2,0.5,0,0.7
			C29.2,29.4,29.1,29.4,28.9,29.4z"/>
	</g>
</g>
</svg>
