<svg xmlns="http://www.w3.org/2000/svg" viewBox="0 0 25.08 35.61"><defs><style>.cls-1{fill:#231f20;}</style></defs><title>quick view</title><g id="Layer_2" data-name="Layer 2"><g id="Layer_2-2" data-name="Layer 2"><path class="cls-1" d="M25.08,12.54A12.54,12.54,0,1,0,11.33,25v9.37a1.21,1.21,0,1,0,2.42,0V25A12.55,12.55,0,0,0,25.08,12.54ZM12.54,22.65A10.11,10.11,0,1,1,22.65,12.54,10.11,10.11,0,0,1,12.54,22.65Z"/><path class="cls-1" d="M18.47,11.63h-5v-5a.91.91,0,0,0-1.82,0v5h-5a.91.91,0,1,0,0,1.82h5v5a.91.91,0,1,0,1.82,0v-5h5a.91.91,0,0,0,0-1.82Z"/></g></g></svg>